<?xml version="1.0" encoding="UTF-8"?>
<!DOCTYPE svg PUBLIC "-//W3C//DTD SVG 1.1//EN" "http://www.w3.org/Graphics/SVG/1.1/DTD/svg11.dtd">
<!-- Creator: CorelDRAW -->
<svg xmlns="http://www.w3.org/2000/svg" xml:space="preserve" width="6in" height="10in" style="shape-rendering:geometricPrecision; text-rendering:geometricPrecision; image-rendering:optimizeQuality; fill-rule:evenodd; clip-rule:evenodd"
viewBox="0 0 6 10"
 xmlns:xlink="http://www.w3.org/1999/xlink">
 <defs>
  <style type="text/css">
   <![CDATA[
    .fil16 {fill:#150908}
    .fil13 {fill:#171B19}
    .fil7 {fill:#262927}
    .fil19 {fill:#2E1109}
    .fil1 {fill:#454E51}
    .fil8 {fill:#5A6365}
    .fil9 {fill:#6A7374}
    .fil11 {fill:#828B8C}
    .fil17 {fill:#8F9897}
    .fil15 {fill:#92ADE4}
    .fil10 {fill:#B9CBD2}
    .fil4 {fill:#BBA47B}
    .fil12 {fill:#CFA931}
    .fil5 {fill:#D2C6B3}
    .fil6 {fill:#D4EBF5}
    .fil18 {fill:#D91034}
    .fil3 {fill:#E6E7E3}
    .fil2 {fill:#FCB917}
    .fil14 {fill:#FDC609}
    .fil0 {fill:#FEFEFE}
   ]]>
  </style>
 </defs>
 <g id="Layer_x0020_1">
  <metadata id="CorelCorpID_0Corel-Layer"/>
  <g id="_75420272">
   <path id="_35058240" class="fil0" d="M0.781256 8.57219l1.88593 0c-0.0420551,-0.062063 -0.652157,-0.136028 -0.927429,-0.794311l0.039937 -0.0488189 0 -0.0221811c-0.379575,-0.253831 -0.355004,-0.546031 -0.355004,-0.976248l0 -0.310626c0,-0.67278 0.0715315,-1.12934 -0.0146614,-1.8269 -0.0734961,-0.594862 -0.162835,-1.16396 -0.162835,-1.76747l0 -0.244063c0,-0.844815 0.597291,-0.776563 1.33124,-0.776563l0.316173 0c0.540835,0 1.2875,-0.0795394 1.34789,0.576874 0.80665,0.392937 0.900579,0.851217 0.82439,1.7119 -0.0659606,0.745201 -0.336268,1.53868 -0.336268,2.25966l0 0.443752c0,0.752752 0.207575,1.54993 -0.687811,1.775l1.17594 0 0 -7.14437 -4.43749 0 0 7.14437z"/>
   <path id="_73154448" class="fil1" d="M2.57844 7.15219c0,-0.106925 0.0694449,-0.1775 0.177504,-0.1775 0.107169,0 0.155311,0.0481378 0.155311,0.155315 0,0.106681 -0.0381417,0.1775 -0.155311,0.1775 -0.100807,0 -0.177504,-0.0481024 -0.177504,-0.155315zm0.865311 -0.1775c0.257575,0 0.218157,0.332492 0,0.332488 -0.237512,0 -0.223878,-0.332488 0,-0.332488zm-0.0645315 -3.13722l0.086315 -0.0160394 0.177902 0.00263386 0.0940512 0.0128425c0.0109646,0.0389331 0.0245236,0.0545118 0.0168858,0.0980984l-0.0128425 0.0940433 -0.0974764 0.0204173 -0.178114 -0.00352362 -0.0851299 -0.0132402 -0.00159055 -0.195232zm-0.80078 -0.0134055l0.0761063 0.00895276 0.0152756 0.0793937 -0.00263386 0.0225945 -0.00894488 0.0760984 -0.0794016 0.0152835 -0.200091 -0.00263386 -0.0847913 -0.0132205 -0.00168504 -0.173047 0.0860748 -0.0160551 0.200091 0.00263386zm-0.460642 0.0128425c0.0109685,0.0389331 0.0245315,0.0545118 0.0168937,0.0980984l-0.0128425 0.0940433 -0.0974764 0.0204173 -0.155929 -0.00352362 -0.103945 -0.0174173 -0.00593701 -0.190768 0.0872913 -0.0163268 0.177902 0.00263386 0.0940433 0.0128425zm0.730299 0.000669291l0.0849409 -0.0161457 0.177902 0.00263386 0.0761024 0.00895276 -0.0230433 0.145453 -0.313803 -0.0344409 -0.00209843 -0.106453zm-0.469346 -1.36695l-0.665622 0c-0.0403268,0.0616024 -0.0443701,0.054685 -0.0443701,0.133126l0 0.843126 0.00894094 0.0761024 0.0354291 -0.0317283c0,-0.246091 -0.137346,-0.976252 0.199689,-0.976252l0.022189 0 1.59749 0 0.044378 0c0.336016,0 0.199685,0.733909 0.199685,0.976252 -0.239717,0.221276 -0.894126,0.133126 -1.22031,0.133126 -0.20961,0 -0.46085,-0.0131575 -0.665622,0.0125827 -0.13078,0.0164488 0.291807,0.0318937 0.310476,0.0318819 0.397228,-0.000377953 0.969839,-0.0336181 1.34698,0.00830315 0.0416535,0.00462992 -0.0790197,0.0101457 -0.0817362,0.010252 -0.111335,0.00448425 -0.221846,0.00359449 -0.333224,0.00353937 -0.224039,-9.84252e-005 -0.443866,0.0101969 -0.668024,0.0101969l-0.0557677 0c-0.187268,0 -0.44139,0.0154134 -0.586906,0.139043 -0.059937,0.0509213 -0.199362,0.261913 -0.104701,0.299319 0.0606575,0.0239685 0.172543,-0.0723031 0.227205,-0.0297323 0.0343898,0.0267835 -0.147988,0.0864055 -0.190461,0.151197 -0.114228,0.174268 1.00468,-0.112713 1.1124,0.317476l0.131559 0.130283 -0.0152992 0.0163976 -0.180354 -0.122028c-0.00645276,0.122453 0.0994331,0.16263 -0.0150512,0.384323 -0.0651142,0.126083 -0.10748,0.291161 -0.167504,0.387181 -0.0326417,0.0522205 -0.307874,0.727429 -0.308327,0.756122l0.0668504 0.000846457c0.0855748,-0.342102 0.363374,-0.193839 0.500157,-0.444571 0.0756535,-0.138673 0.216484,-0.232748 0.19163,-0.402555 -0.0222087,-0.151713 0.290512,-0.00806299 0.00823228,0.437646 -0.172106,0.271764 -0.307882,0.308984 -0.589079,0.40948l-0.00443701 0.039937c-0.426961,0.0359409 -0.359429,-0.0659055 -0.661189,-0.150874l-0.022189 0.0369764c0.130268,0.33072 -0.076815,0.18048 -0.0147835,0.387047 0.0465039,-0.010378 0.232587,-0.142185 0.207075,0.130661l-0.0315709 0.0192205 -0.108406 -0.140957 0.0600157 0.359283 0.0979252 -0.112705 0.0316102 -0.000472441 0.0465709 0.252815c0.316921,0.275287 -0.0201063,0.469402 -0.199685,0.266256 -0.0314843,-0.0540197 -0.0399449,-0.0479567 -0.0498268,-0.112335 -0.00184646,-0.0120512 -0.0187205,-0.121224 -0.0276969,-0.121921 -0.000114173,-1.1811e-005 -0.0590315,0.23465 -0.0674843,0.208807 -0.0642087,-0.196335 -0.0713465,-1.05361 -0.0597638,-1.29154 0.00743701,-0.152728 -0.0141417,-0.259 0.0281339,-0.414764 0.0240866,-0.0887283 0.108831,-0.0698228 0.112453,0.0162008 0.0141063,0.334382 0.150488,0.0769724 0.21389,-0.0364724 0.137874,-0.246693 -0.0845591,-0.0850866 -0.178764,-0.197937 -0.179315,-0.214795 0.00874409,-0.551488 0.242008,-0.655063 0.0780787,-0.0346614 0.396445,-0.111291 0.445106,-0.00686614 0.0309567,0.0664213 -0.116555,0.34524 -0.149094,0.436157 -0.123362,0.344646 -0.171323,0.737587 -0.442394,0.999783 0.147508,-0.0462323 0.23022,0.0676693 0.302169,-0.0749173 0.0485433,-0.096189 0.0963858,-0.266752 0.135606,-0.374795 0.0951969,-0.262236 0.18572,-0.471224 0.295362,-0.725366 0.146398,-0.339343 -0.0935866,-0.443307 -0.400933,-0.400142 -0.381252,0.0535394 -0.403791,0.151673 -0.66502,0.377102 -0.0162402,0.166173 -0.100492,0.270594 -0.100492,0.471157l0 0.0391496c0,0.215067 0.100882,0.399421 0.100512,0.709984 -0.000334646,0.28024 0.0128031,0.534335 0.0299291,0.813193 0.046378,0.755091 0.173925,0.739953 0.946299,0.739953l0.377185 0c0.24087,0 0.617031,-0.00293307 0.776559,-0.199689 0.0546811,-0.743622 0.0439449,-1.49583 0.0442598,-2.24105 0.00030315,-0.710535 0.177618,-1.37457 0.177618,-2.08551l0 -0.443744c0,-0.49898 -0.0228071,0.304441 -0.0265039,0.395051 -0.00641339,0.157291 -0.0844331,0.827008 -0.0844331,0.270571l0.0028937 -0.688039 -0.0250827 -0.310398 -0.0868898 0.112177 -0.0981811 -0.0529961 -0.477063 0.0263543c-0.207969,0.128693 -0.518575,0.0697756 -0.80224,0.0697756z"/>
   <path id="_74018296" class="fil2" d="M3.75437 7.41844c-0.159528,0.196756 -0.535689,0.199689 -0.776559,0.199689l-0.377185 0c-0.772374,0 -0.899921,0.0151378 -0.946299,-0.739953 -0.017126,-0.278858 -0.0302638,-0.532953 -0.0299291,-0.813193 0.000370079,-0.310563 -0.100512,-0.494917 -0.100512,-0.709984l0 -0.0391496c0,-0.200563 0.084252,-0.304984 0.100492,-0.471157l-0.187594 -1.59626 0.0100945 -0.799988 0.0665591 -0.421563 1.1747 -0.145091 0.178732 0.0119646 1.13156 0.133126 0.0502323 0.509795 -0.0058622 0.444264c0,0.718409 -0.193409,1.44269 -0.220264,2.1538 -0.0240197,0.636043 0.074622,1.71005 -0.0681732,2.2837zm-1.97468 0.288437l0.198976 0.0275669 0.0450827 0.0389921 0.399374 0 0.377185 0c0.529988,0 1.22031,0.0493976 1.22031,-0.643433l0 -0.976252 -0.0236024 -0.576811 0.00142126 -0.488189c0,-0.50937 0.120945,-0.779232 0.17824,-1.24175 0.0555433,-0.448343 0.0658189,-0.902618 0.0658189,-1.35419l0 -0.110937c-0.0603898,-0.656413 -0.807051,-0.576874 -1.34789,-0.576874l-0.316173 0c-0.733953,0 -1.33124,-0.068252 -1.33124,0.776563l0 0.244063c0,0.603512 0.0893386,1.17261 0.162835,1.76747 0.0861929,0.697563 0.0146614,1.15412 0.0146614,1.8269l0 0.310626c0,0.430217 -0.0245709,0.722417 0.355004,0.976248z"/>
   <path id="_72679360" class="fil3" d="M4.2425 2.49281l0.022189 0.110941c0.424307,0.240346 0.465933,0.676717 0.465933,1.13156 0,0.92528 -0.343937,1.87754 -0.310622,2.84l0.0233819 0.709957 -0.00119291 0.199732c0,0.799276 -0.515571,0.798748 -1.17594,0.798748l-0.1775 0c-0.482236,0 -1.00339,-0.167031 -1.30906,-0.554693l-0.039937 0.0488189c0.275272,0.658283 0.885374,0.732248 0.927429,0.794311l1.37562 0c0.895386,-0.225067 0.687811,-1.02225 0.687811,-1.775l0 -0.443752c0,-0.72098 0.270307,-1.51446 0.336268,-2.25966 0.076189,-0.860681 -0.0177402,-1.31896 -0.82439,-1.7119l0 0.110937z"/>
   <path id="_61921848" class="fil4" d="M2.02375 7.77343c0.322035,0.27776 0.597264,0.355 1.02063,0.355l0.665622 0c0.711378,0 0.532496,-0.559961 0.532496,-1.13156 0,-0.562717 0.00561024,-1.00602 0.0745591,-1.56731 0.113945,-0.927563 0.444661,-1.96889 -0.0523701,-2.82581l-0.022189 -0.110941c0,0.451567 -0.0102756,0.905843 -0.0658189,1.35419 -0.0572953,0.46252 -0.17824,0.732382 -0.17824,1.24175l-0.00142126 0.488189 0.0236024 0.576811 0 0.976252c0,0.692831 -0.690319,0.643433 -1.22031,0.643433l-0.377185 0 -0.399374 0z"/>
   <path id="_73397144" class="fil5" d="M2.02375 7.77343l-0.0450827 -0.0389921 -0.198976 -0.0275669 0 0.0221811c0.305661,0.387661 0.826819,0.554693 1.30906,0.554693l0.1775 0c0.660366,0 1.17594,0.000527559 1.17594,-0.798748l0.00119291 -0.199732 -0.0233819 -0.709957c-0.033315,-0.962457 0.310622,-1.91472 0.310622,-2.84 0,-0.454846 -0.041626,-0.891217 -0.465933,-1.13156 0.497031,0.856913 0.166315,1.89824 0.0523701,2.82581 -0.0689488,0.561291 -0.0745591,1.0046 -0.0745591,1.56731 0,0.571598 0.178882,1.13156 -0.532496,1.13156l-0.665622 0c-0.423362,0 -0.698591,-0.0772402 -1.02063,-0.355z"/>
   <path id="_74998664" class="fil6" d="M2.68937 2.75907l0.029622 -0.0367283 0.081122 -0.00946063 0.0667559 0.00181102 0.0940512 0.0128425 0.0168858 0.453094 0.088748 0 0.0168937 -0.453094 0.0940472 -0.0128425 0.0671811 -0.00352362 0.0974724 0.0204173 0.0128425 0.0940433 0 0.310626c0,0.0784409 -0.00404331,0.0715236 -0.0443701,0.133122l-0.00208268 0.20663 -0.316173 -0.000885827 -0.0730512 -0.00201969 -0.215386 0.00201969 -0.0730315 -0.00153543 -0.217831 -0.000484252 -0.0907953 0c-0.591217,0 -0.486469,-0.237618 -0.371689,-0.179 0.0650827,0.0332362 0.16152,0.108748 0.241677,0.101303 0.00432677,-0.000405512 0.204484,-0.0732205 0.186484,-0.126028l-0.0759055 -0.0390748 -0.0128425 -0.0940472 0 -0.288437c0,-0.0787677 0.00331496,-0.0908622 0.0530236,-0.148516l0.0801024 -0.00679921 0.0445748 -0.00181102 0.0811181 0.00946063 0.0296181 0.0367283 0.0843504 0.470484 0.0265866 -0.448295zm-0.710567 0.0200315l0.0195866 0.138449c0.120547,0.0490236 0.202858,0.000779528 0.202858,0.174327l0 0.022189c0,0.0701732 0.000704724,0.0666496 -0.0285236,0.126787 -0.0464646,0.0225866 -0.047622,0.0285236 -0.104598,0.0285236 -0.0701772,0 -0.0666496,0.000708661 -0.126787,-0.0285236 -0.0292323,-0.0601378 -0.0285276,-0.0566142 -0.0285276,-0.126787l0 -0.244063c0,-0.0664528 0.000204724,-0.0712992 0.0253583,-0.129953 0.0409291,-0.0202717 0.0340945,-0.0253583 0.0855787,-0.0253583 0.0594409,0 0.0465551,-0.00701969 0.0934016,0.0277913l-0.138346 0.0366181zm-0.265681 0.712154c0.0546811,0.0434764 0.0596811,0.044374 0.133126,0.044374l1.775 0c0.0791142,0 0.0904134,-0.00332677 0.155307,-0.044374 0,-0.242343 0.136331,-0.976252 -0.199685,-0.976252l-0.044378 0 -1.59749 0 -0.022189 0c-0.337035,0 -0.199689,0.730161 -0.199689,0.976252z"/>
   <path id="_73674216" class="fil7" d="M1.62438 4.84469c0.261228,-0.225429 0.283768,-0.323563 0.66502,-0.377102 0.307346,-0.0431654 0.547331,0.0607992 0.400933,0.400142 -0.109642,0.254142 -0.200165,0.46313 -0.295362,0.725366 -0.0392205,0.108043 -0.087063,0.278606 -0.135606,0.374795 -0.0719488,0.142587 -0.154661,0.028685 -0.302169,0.0749173l-0.27076 -0.194571 0.13763 0.17239c0.30176,0.0849685 0.234228,0.186815 0.661189,0.150874l0.00443701 -0.039937 -0.110941 0 -0.0668504 -0.000846457c0.000452756,-0.0286929 0.275685,-0.703902 0.308327,-0.756122 0.0600236,-0.0960197 0.10239,-0.261098 0.167504,-0.387181 0.114484,-0.221693 0.00859843,-0.26187 0.0150512,-0.384323l0.180354 0.122028 0.0152992 -0.0163976 -0.131559 -0.130283c-0.700732,-0.411685 -1.00471,0.104118 -1.16399,0.0938661 -0.0759055,-0.0952441 -0.168882,-0.930602 -0.098685,-1.02957 0.0465079,-0.0655787 -0.00201181,-1.00915 -0.00201181,-1.17211l0.00581102 -0.164555 0.238252 -0.0129449 0.465402 -0.0705669 1.02116 0.00400787 0.510307 0.088748 0.0250827 0.310398 -0.0028937 0.688039c0,0.556437 0.0780197,-0.11328 0.0844331,-0.270571 0.00369685,-0.0906102 0.0265039,-0.894031 0.0265039,-0.395051l0 0.443744c0,0.710945 -0.177315,1.37498 -0.177618,2.08551 -0.000314961,0.74522 0.0104213,1.49743 -0.0442598,2.24105 0.142795,-0.573657 0.0441535,-1.64766 0.0681732,-2.2837 0.0268543,-0.711102 0.220264,-1.43539 0.220264,-2.1538l0.0058622 -0.444264 -0.0502323 -0.509795 -0.0473898 0.163059 -1.03898 -0.104831 -0.372457 0.00833071 -1.0234 0.0895354 -0.00277559 -0.156094 -0.0665591 0.421563 -0.0100945 0.799988 0.187594 1.59626z"/>
   <path id="_75270848" class="fil8" d="M1.89063 7.21875c-0.0415236,-0.166102 0.0286969,-0.255823 0.199685,-0.266256l-0.0465709 -0.252815 -0.0316102 0.000472441 -0.0979252 0.112705 -0.0600157 -0.359283 0.108406 0.140957 0.0315709 -0.0192205c0.0255118,-0.272846 -0.160571,-0.141039 -0.207075,-0.130661 -0.0620315,-0.206567 0.145051,-0.0563268 0.0147835,-0.387047l0.022189 -0.0369764 -0.13763 -0.17239 0.27076 0.194571c0.271071,-0.262197 0.319031,-0.655138 0.442394,-0.999783 0.0325394,-0.0909173 0.180051,-0.369736 0.149094,-0.436157 -0.0486614,-0.104425 -0.367028,-0.0277953 -0.445106,0.00686614 -0.233264,0.103575 -0.421323,0.440268 -0.242008,0.655063 0.0942047,0.11285 0.316638,-0.0487559 0.178764,0.197937 -0.0634016,0.113445 -0.199783,0.370854 -0.21389,0.0364724 -0.00362205,-0.0860236 -0.0883661,-0.104929 -0.112453,-0.0162008 -0.0422756,0.155764 -0.0206969,0.262035 -0.0281339,0.414764 -0.0115827,0.237929 -0.00444488,1.0952 0.0597638,1.29154 0.00845276,0.0258425 0.0673701,-0.208819 0.0674843,-0.208807 0.00897638,0.00069685 0.0258504,0.10987 0.0276969,0.121921 0.00988189,0.064378 0.0183425,0.058315 0.0498268,0.112335z"/>
   <path id="_75012120" class="fil9" d="M2.86687 4.57844c-0.107724,-0.430189 -1.22663,-0.143209 -1.1124,-0.317476 0.0424724,-0.0647913 0.22485,-0.124413 0.190461,-0.151197 -0.0546614,-0.0425709 -0.166547,0.0537008 -0.227205,0.0297323 -0.0946614,-0.0374055 0.0447638,-0.248398 0.104701,-0.299319 0.145516,-0.12363 0.399638,-0.139043 0.586906,-0.139043l0.0557677 0c0.224157,0 0.443984,-0.0102953 0.668024,-0.0101969 0.111378,5.51181e-005 0.22189,0.000944882 0.333224,-0.00353937 0.00271654,-0.000106299 0.12339,-0.00562205 0.0817362,-0.010252 -0.377142,-0.0419213 -0.949752,-0.0086811 -1.34698,-0.00830315 -0.0186693,1.1811e-005 -0.441256,-0.0154331 -0.310476,-0.0318819 0.204772,-0.0257402 0.456012,-0.0125827 0.665622,-0.0125827 0.326181,0 0.980591,0.0881496 1.22031,-0.133126 -0.0648937,0.0410472 -0.0761929,0.044374 -0.155307,0.044374l-1.775 0c-0.0734449,0 -0.0784449,-0.000897638 -0.133126,-0.044374l-0.0354291 0.0317283 -0.00894094 -0.0761024 0 -0.843126c0,-0.0784409 0.00404331,-0.0715236 0.0443701,-0.133126l-0.110937 0c0,0.162957 0.0485197,1.10653 0.00201181,1.17211 -0.0701969,0.0989646 0.0227795,0.934323 0.098685,1.02957 0.15928,0.010252 0.463256,-0.505551 1.16399,-0.0938661z"/>
   <polygon id="_75042120" class="fil9" points="1.51344,2.02688 1.51621,2.18297 2.53961,2.09344 2.91207,2.08511 3.95105,2.18994 3.99844,2.02688 2.86687,1.89375 2.68814,1.88179 "/>
   <path id="_75038584" class="fil10" d="M2.37875 3.26937c0.018,0.0528071 -0.182157,0.125622 -0.186484,0.126028 -0.0801575,0.00744488 -0.176594,-0.0680669 -0.241677,-0.101303 -0.11478,-0.0586181 -0.219528,0.179 0.371689,0.179l0.0907953 0 0.217831 0.000484252 0.0730315 0.00153543 0.215386 -0.00201969 0.0730512 0.00201969 0.316173 0.000885827 0.00208268 -0.20663 -0.204661 -0.00828346 -0.0394055 -0.0804646 -0.088748 0 -0.0491024 0.0824724 -0.0838228 0.00808661 -0.0445748 -0.00181102 -0.0940433 -0.0128386 -0.0168937 -0.497469 -0.0265866 0.448295 -0.0843504 -0.470484 -0.0118071 0.207114 -0.0284567 0.00273228 -0.0432992 -0.169161 -0.0974016 -0.00944488 -0.0242835 0.0100866 0.00201181 0.405705 0.0222717 0.00984646 0.0949882 0 0.0442008 -0.200484c0.0490276,0.0510669 0.0417756,0.0333504 0.0417756,0.0986024l0 0.022189c0,0.0664528 -0.000208661,0.0712992 -0.0253543,0.129957l-0.174335 0.0253543z"/>
   <path id="_74181792" class="fil11" d="M1.84625 2.29313l0.526693 0.0129449 0.00580315 0.164555c0.283665,0 0.594272,0.0589173 0.80224,-0.0697756l0.477063 -0.0263543 0.0981811 0.0529961 0.0868898 -0.112177 -0.510307 -0.088748 -1.02116 -0.00400787 -0.465402 0.0705669z"/>
   <path id="_74113432" class="fil9" d="M2.37875 6.13156l0.110941 0c0.281197,-0.100496 0.416972,-0.137717 0.589079,-0.40948 0.28228,-0.445709 -0.0304409,-0.589358 -0.00823228,-0.437646 0.0248543,0.169807 -0.115976,0.263882 -0.19163,0.402555 -0.136783,0.250732 -0.414583,0.102469 -0.500157,0.444571z"/>
   <polygon id="_73332744" class="fil12" points="1.60219,2.47063 1.71313,2.47063 2.37875,2.47063 2.37294,2.30607 1.84625,2.29313 1.608,2.30607 "/>
   <path id="_73502992" class="fil8" d="M2.37875 3.26937l0.174335 -0.0253543c0.0251457,-0.0586575 0.0253543,-0.0635039 0.0253543,-0.129957l0 -0.022189c0,-0.065252 0.00725197,-0.0475354 -0.0417756,-0.0986024l-0.0442008 0.200484 -0.0949882 0 -0.0222717 -0.00984646 -0.00201181 -0.405705 0.0242835 -0.0100866 0.0974016 0.00944488 0.0432992 0.169161 0.0284567 -0.00273228 0.0118071 -0.207114 -0.0296181 -0.0367283 -0.0811181 -0.00946063 -0.0445748 0.00181102 -0.0801024 0.00679921c-0.0497087,0.0576535 -0.0530236,0.069748 -0.0530236,0.148516l0 0.288437 0.0128425 0.0940472 0.0759055 0.0390748z"/>
   <path id="_74994224" class="fil13" d="M2.57844 7.15219c0,0.107213 0.0766969,0.155315 0.177504,0.155315 0.117169,0 0.155311,-0.0708189 0.155311,-0.1775 0,-0.107177 -0.0481417,-0.155315 -0.155311,-0.155315 -0.108059,0 -0.177504,0.0705748 -0.177504,0.1775z"/>
   <path id="_73152096" class="fil1" d="M3.12583 2.77252l0.0956417 -0.0160866c0.030252,-0.00193701 0.0332402,0.00681496 0.0536496,0.0159409l0.0180079 0.417213 -0.0930394 0.0158622c-0.0302598,0.00192913 -0.0332402,-0.0068189 -0.0713583,-0.0158228l-0.00290157 -0.417106zm-0.0592717 0.408106l0.0394055 0.0804646 0.204661 0.00828346c0.0403268,-0.0615984 0.0443701,-0.0546811 0.0443701,-0.133122l0 -0.310626 -0.0128425 -0.0940433 -0.0974724 -0.0204173 -0.0671811 0.00352362 -0.0940472 0.0128425 -0.0168937 0.453094z"/>
   <path id="_73434928" class="fil14" d="M3.38081 4.0327l0.0851299 0.0132402 0.178114 0.00352362 0.0974764 -0.0204173 0.0128425 -0.0940433c0.0076378,-0.0435866 -0.00592126,-0.0591654 -0.0168858,-0.0980984l-0.0940512 -0.0128425 -0.177902 -0.00263386 -0.086315 0.0160394 0.00159055 0.195232z"/>
   <path id="_74532984" class="fil1" d="M2.72714 2.95592l0.0421063 -0.183543c0.0204173,-0.00912598 0.0233976,-0.017878 0.0536575,-0.0159409l0.0771575 0.015622 0.0353071 0.198232 -0.0438819 0.0773661 -0.0157402 0.150091 -0.106122 -0.00830709 -0.0424843 -0.23352zm-0.0377677 -0.19685l0.0168937 0.497469 0.0940433 0.0128386 0.0445748 0.00181102 0.0838228 -0.00808661 0.0491024 -0.0824724 -0.0168858 -0.453094 -0.0940512 -0.0128425 -0.0667559 -0.00181102 -0.081122 0.00946063 -0.029622 0.0367283z"/>
   <path id="_73153928" class="fil1" d="M1.98333 3.01635c0.0297677,-0.0090315 0.032752,-0.0177874 0.0630079,-0.0158543l0.0793976 0.0152835 0.00894882 0.0760984 0.0026378 0.0225945 -0.0159528 0.0750315c-0.0204094,0.00912992 -0.0233937,0.017878 -0.0536457,0.0159488l-0.0860827 -0.0160551 0.00168898 -0.173047zm0.133819 -0.273866c-0.0468465,-0.034811 -0.0339606,-0.0277913 -0.0934016,-0.0277913 -0.0514843,0 -0.0446496,0.00508661 -0.0855787,0.0253583 -0.0251535,0.0586535 -0.0253583,0.0635 -0.0253583,0.129953l0 0.244063c0,0.0701732 -0.000704724,0.0666496 0.0285276,0.126787 0.0601378,0.0292323 0.0566102,0.0285236 0.126787,0.0285236 0.0569764,0 0.0581339,-0.00593701 0.104598,-0.0285236 0.0292283,-0.0601378 0.0285236,-0.0566142 0.0285236,-0.126787l0 -0.022189c0,-0.173547 -0.082311,-0.125303 -0.202858,-0.174327l-0.0195866 -0.138449 0.138346 -0.0366181z"/>
   <path id="_73664448" class="fil15" d="M1.7645 4.02852l0.103945 0.0174173 0.155929 0.00352362 0.0974764 -0.0204173 0.0128425 -0.0940433c0.0076378,-0.0435866 -0.0059252,-0.0591654 -0.0168937,-0.0980984l-0.0940433 -0.0128425 -0.177902 -0.00263386 -0.0872913 0.0163268 0.00593701 0.190768z"/>
   <polygon id="_73852424" class="fil11" points="2.29396,4.01053 2.37875,4.02375 2.57884,4.02639 2.65824,4.0111 2.66719,3.935 2.66982,3.91241 2.65454,3.83302 2.57844,3.82406 2.37835,3.82143 2.29227,3.83748 "/>
   <path id="_75221216" class="fil6" d="M3.12873 3.18963c0.0381181,0.00900394 0.0410984,0.017752 0.0713583,0.0158228l0.0930394 -0.0158622 -0.0180079 -0.417213c-0.0204094,-0.00912598 -0.0233976,-0.017878 -0.0536496,-0.0159409l-0.0956417 0.0160866 0.00290157 0.417106z"/>
   <path id="_73243536" class="fil6" d="M2.76963 3.18944l0.106122 0.00830709 0.0157402 -0.150091 0.0438819 -0.0773661 -0.0353071 -0.198232 -0.0771575 -0.015622c-0.0302598,-0.00193701 -0.0332402,0.00681496 -0.0536575,0.0159409l-0.0421063 0.183543 0.0424843 0.23352z"/>
   <path id="_73502896" class="fil16" d="M3.45824 7.01565l0.0973465 0.106937c-0.0449252,0.108429 -0.0789764,0.136291 -0.182831,0.100594 -0.0264213,-0.0254843 -0.0466654,-0.0510748 -0.039937,-0.093185l0.00597244 -0.0646535 0.119449 -0.0496929zm-0.0144882 -0.0409685c-0.223878,0 -0.237512,0.332488 0,0.332488 0.218157,3.93701e-006 0.257575,-0.332488 0,-0.332488z"/>
   <path id="_74202736" class="fil16" d="M1.935 7.15219c0.0288228,-0.19865 0.221874,-0.159567 0.221874,-0.022185 0,0.051 -0.00602362,0.0604685 -0.039937,0.093185 -0.102461,0.0352126 -0.122661,0.0124331 -0.181937,-0.071zm-0.044378 0.0665669c0.179579,0.203146 0.516606,0.0090315 0.199685,-0.266256 -0.170988,0.0104331 -0.241209,0.100154 -0.199685,0.266256z"/>
   <polygon id="_72022840" class="fil17" points="2.85019,4.00312 3.18087,4.02067 3.18704,3.83302 3.11094,3.82406 2.93304,3.82143 2.84809,3.83757 "/>
   <path id="_72021688" class="fil6" d="M2.12137 3.1895l0.0159528 -0.0750315 -0.0026378 -0.0225945 -0.00894882 -0.0760984 -0.0793976 -0.0152835c-0.0302559,-0.00193307 -0.0332402,0.00682283 -0.0630079,0.0158543l-0.00168898 0.173047 0.0860827 0.0160551c0.030252,0.00192913 0.0332362,-0.0068189 0.0536457,-0.0159488z"/>
   <path id="_75774232" class="fil18" d="M2.06092 7.06069l0.0619567 0.0530394 -0.0249449 0.0639252 -0.0654567 0.0023189 -0.0112008 0.00414961 -0.043626 -0.0795827 0.0832717 -0.0438504zm-0.125917 0.0914921c0.0592756,0.0834331 0.0794764,0.106213 0.181937,0.071 0.0339134,-0.0327165 0.039937,-0.042185 0.039937,-0.093185 0,-0.137382 -0.193051,-0.176465 -0.221874,0.022185z"/>
   <path id="_74038112" class="fil18" d="M3.44541 7.19288l-0.0640118 -0.010126 0.0262677 -0.0973898 0.0904409 -0.00485039 0.00176772 0.0605118 -0.0135787 0.0358425 -0.0408858 0.0160118zm-0.106626 -0.127535l-0.00597244 0.0646535c-0.00672835,0.0421102 0.0135157,0.0677008 0.039937,0.093185 0.103854,0.0356969 0.14265,0.0158819 0.187575,-0.0925472l-0.0431693 -0.0731772 -0.0584606 -0.0417362 -0.119909 0.049622z"/>
   <polygon id="_74199824" class="fil19" points="1.97765,7.10454 2.02128,7.18413 2.05099,7.193 2.09793,7.17766 2.12288,7.11374 2.06092,7.06069 "/>
   <polygon id="_74035552" class="fil13" points="3.49282,7.17352 3.50434,7.13444 3.49811,7.08052 3.4261,7.06456 3.37657,7.10406 3.3814,7.18276 3.43697,7.20082 "/>
   <rect id="_74038368" class="fil8" x="2.22956" y="3.21835" width="0.0464252" height="0.0633071"/>
   <path id="_74037984" class="fil1" d="M2.74763 7.02128c0.0598543,0 0.10839,0.0484134 0.117425,0.117126 -0.00903543,0.050685 -0.0575709,0.0991024 -0.117425,0.117122 -0.0598504,-0.0180197 -0.108386,-0.066437 -0.117421,-0.117122 0.00903543,-0.0687126 0.0575709,-0.117126 0.117421,-0.117126zm0 0.0229331c0.0469055,0 0.0849449,0.0389528 0.0902008,0.092374 -0.00525591,0.0426575 -0.0432953,0.0816142 -0.0902008,0.092374 -0.0469055,-0.0107598 -0.0849449,-0.0497165 -0.0902008,-0.092374 0.00525591,-0.0534213 0.0432953,-0.092374 0.0902008,-0.092374z"/>
   <path id="_74038240" class="fil7" d="M3.57621 4.21485c0.0589646,0 0.106783,0.0457362 0.113386,0.108457 -0.00660236,0.0500866 -0.0544213,0.0958268 -0.113386,0.108461 -0.0589685,-0.0126339 -0.106787,-0.058374 -0.11339,-0.108461 0.00660236,-0.0627205 0.0544213,-0.108457 0.11339,-0.108457z"/>
  </g>
 </g>
</svg>
